<mxfile host="Electron" agent="Mozilla/5.0 (Windows NT 10.0; Win64; x64) AppleWebKit/537.36 (KHTML, like Gecko) draw.io/24.7.8 Chrome/128.0.6613.36 Electron/32.0.1 Safari/537.36" version="24.7.8">
  <diagram name="Page-1" id="9f46799a-70d6-7492-0946-bef42562c5a5">
    <mxGraphModel dx="989" dy="577" grid="1" gridSize="10" guides="1" tooltips="1" connect="1" arrows="1" fold="1" page="1" pageScale="1" pageWidth="1100" pageHeight="850" background="none" math="0" shadow="0">
      <root>
        <mxCell id="0" />
        <mxCell id="1" parent="0" />
        <mxCell id="78961159f06e98e8-17" value="Usuario" style="swimlane;html=1;fontStyle=1;align=center;verticalAlign=top;childLayout=stackLayout;horizontal=1;startSize=26;horizontalStack=0;resizeParent=1;resizeLast=0;collapsible=1;marginBottom=0;swimlaneFillColor=#ffffff;rounded=0;shadow=0;comic=0;labelBackgroundColor=none;strokeWidth=1;fillColor=none;fontFamily=Verdana;fontSize=12" parent="1" vertex="1">
          <mxGeometry x="270" y="40" width="160" height="237" as="geometry" />
        </mxCell>
        <mxCell id="78961159f06e98e8-21" value="- id: UUID" style="text;html=1;strokeColor=none;fillColor=none;align=left;verticalAlign=top;spacingLeft=4;spacingRight=4;whiteSpace=wrap;overflow=hidden;rotatable=0;points=[[0,0.5],[1,0.5]];portConstraint=eastwest;" parent="78961159f06e98e8-17" vertex="1">
          <mxGeometry y="26" width="160" height="26" as="geometry" />
        </mxCell>
        <mxCell id="78961159f06e98e8-23" value="- nome: String" style="text;html=1;strokeColor=none;fillColor=none;align=left;verticalAlign=top;spacingLeft=4;spacingRight=4;whiteSpace=wrap;overflow=hidden;rotatable=0;points=[[0,0.5],[1,0.5]];portConstraint=eastwest;" parent="78961159f06e98e8-17" vertex="1">
          <mxGeometry y="52" width="160" height="26" as="geometry" />
        </mxCell>
        <mxCell id="78961159f06e98e8-25" value="- login: String" style="text;html=1;strokeColor=none;fillColor=none;align=left;verticalAlign=top;spacingLeft=4;spacingRight=4;whiteSpace=wrap;overflow=hidden;rotatable=0;points=[[0,0.5],[1,0.5]];portConstraint=eastwest;" parent="78961159f06e98e8-17" vertex="1">
          <mxGeometry y="78" width="160" height="26" as="geometry" />
        </mxCell>
        <mxCell id="78961159f06e98e8-26" value="- password: String" style="text;html=1;strokeColor=none;fillColor=none;align=left;verticalAlign=top;spacingLeft=4;spacingRight=4;whiteSpace=wrap;overflow=hidden;rotatable=0;points=[[0,0.5],[1,0.5]];portConstraint=eastwest;" parent="78961159f06e98e8-17" vertex="1">
          <mxGeometry y="104" width="160" height="26" as="geometry" />
        </mxCell>
        <mxCell id="78961159f06e98e8-24" value="- telefone: String" style="text;html=1;strokeColor=none;fillColor=none;align=left;verticalAlign=top;spacingLeft=4;spacingRight=4;whiteSpace=wrap;overflow=hidden;rotatable=0;points=[[0,0.5],[1,0.5]];portConstraint=eastwest;" parent="78961159f06e98e8-17" vertex="1">
          <mxGeometry y="130" width="160" height="26" as="geometry" />
        </mxCell>
        <mxCell id="8uhb50UtoSt3Oemtr91H-2" value="- email: String" style="text;html=1;strokeColor=none;fillColor=none;align=left;verticalAlign=top;spacingLeft=4;spacingRight=4;whiteSpace=wrap;overflow=hidden;rotatable=0;points=[[0,0.5],[1,0.5]];portConstraint=eastwest;" parent="78961159f06e98e8-17" vertex="1">
          <mxGeometry y="156" width="160" height="26" as="geometry" />
        </mxCell>
        <mxCell id="8uhb50UtoSt3Oemtr91H-3" value="- status:&amp;nbsp;&lt;span style=&quot;text-align: center;&quot;&gt;Usuario&lt;/span&gt;Status" style="text;html=1;strokeColor=none;fillColor=none;align=left;verticalAlign=top;spacingLeft=4;spacingRight=4;whiteSpace=wrap;overflow=hidden;rotatable=0;points=[[0,0.5],[1,0.5]];portConstraint=eastwest;" parent="78961159f06e98e8-17" vertex="1">
          <mxGeometry y="182" width="160" height="26" as="geometry" />
        </mxCell>
        <mxCell id="8uhb50UtoSt3Oemtr91H-5" value="- perfil:&amp;nbsp;&lt;span style=&quot;text-align: center;&quot;&gt;UsuarioPerfil&lt;/span&gt;" style="text;html=1;strokeColor=none;fillColor=none;align=left;verticalAlign=top;spacingLeft=4;spacingRight=4;whiteSpace=wrap;overflow=hidden;rotatable=0;points=[[0,0.5],[1,0.5]];portConstraint=eastwest;" parent="78961159f06e98e8-17" vertex="1">
          <mxGeometry y="208" width="160" height="26" as="geometry" />
        </mxCell>
        <mxCell id="8uhb50UtoSt3Oemtr91H-6" value="&amp;lt;&amp;lt;enumeration&amp;gt;&amp;gt;&lt;br&gt;UsuarioStatus" style="swimlane;fontStyle=0;childLayout=stackLayout;horizontal=1;startSize=40;fillColor=none;horizontalStack=0;resizeParent=1;resizeParentMax=0;resizeLast=0;collapsible=1;marginBottom=0;whiteSpace=wrap;html=1;" parent="1" vertex="1">
          <mxGeometry x="20" y="112.5" width="140" height="92" as="geometry" />
        </mxCell>
        <mxCell id="8uhb50UtoSt3Oemtr91H-7" value="ATIVO" style="text;strokeColor=none;fillColor=none;align=left;verticalAlign=top;spacingLeft=4;spacingRight=4;overflow=hidden;rotatable=0;points=[[0,0.5],[1,0.5]];portConstraint=eastwest;whiteSpace=wrap;html=1;" parent="8uhb50UtoSt3Oemtr91H-6" vertex="1">
          <mxGeometry y="40" width="140" height="26" as="geometry" />
        </mxCell>
        <mxCell id="8uhb50UtoSt3Oemtr91H-8" value="INATIVO" style="text;strokeColor=none;fillColor=none;align=left;verticalAlign=top;spacingLeft=4;spacingRight=4;overflow=hidden;rotatable=0;points=[[0,0.5],[1,0.5]];portConstraint=eastwest;whiteSpace=wrap;html=1;" parent="8uhb50UtoSt3Oemtr91H-6" vertex="1">
          <mxGeometry y="66" width="140" height="26" as="geometry" />
        </mxCell>
        <mxCell id="8uhb50UtoSt3Oemtr91H-10" value="&amp;lt;&amp;lt;enumeration&amp;gt;&amp;gt;&lt;br&gt;UsuarioPerfil" style="swimlane;fontStyle=0;childLayout=stackLayout;horizontal=1;startSize=40;fillColor=none;horizontalStack=0;resizeParent=1;resizeParentMax=0;resizeLast=0;collapsible=1;marginBottom=0;whiteSpace=wrap;html=1;" parent="1" vertex="1">
          <mxGeometry x="540" y="99.5" width="140" height="118" as="geometry" />
        </mxCell>
        <mxCell id="8uhb50UtoSt3Oemtr91H-11" value="ADMIN" style="text;strokeColor=none;fillColor=none;align=left;verticalAlign=top;spacingLeft=4;spacingRight=4;overflow=hidden;rotatable=0;points=[[0,0.5],[1,0.5]];portConstraint=eastwest;whiteSpace=wrap;html=1;" parent="8uhb50UtoSt3Oemtr91H-10" vertex="1">
          <mxGeometry y="40" width="140" height="26" as="geometry" />
        </mxCell>
        <mxCell id="8uhb50UtoSt3Oemtr91H-12" value="COMPRADOR" style="text;strokeColor=none;fillColor=none;align=left;verticalAlign=top;spacingLeft=4;spacingRight=4;overflow=hidden;rotatable=0;points=[[0,0.5],[1,0.5]];portConstraint=eastwest;whiteSpace=wrap;html=1;" parent="8uhb50UtoSt3Oemtr91H-10" vertex="1">
          <mxGeometry y="66" width="140" height="26" as="geometry" />
        </mxCell>
        <mxCell id="8uhb50UtoSt3Oemtr91H-14" value="OPERADOR" style="text;strokeColor=none;fillColor=none;align=left;verticalAlign=top;spacingLeft=4;spacingRight=4;overflow=hidden;rotatable=0;points=[[0,0.5],[1,0.5]];portConstraint=eastwest;whiteSpace=wrap;html=1;" parent="8uhb50UtoSt3Oemtr91H-10" vertex="1">
          <mxGeometry y="92" width="140" height="26" as="geometry" />
        </mxCell>
        <mxCell id="c4pE5uQ9nAKv7uVE72FW-7" value="1" style="endArrow=open;html=1;endSize=12;startArrow=diamondThin;startSize=14;startFill=1;edgeStyle=orthogonalEdgeStyle;align=left;verticalAlign=bottom;rounded=0;" edge="1" parent="1" source="78961159f06e98e8-17" target="8uhb50UtoSt3Oemtr91H-6">
          <mxGeometry x="-0.5697" y="1" relative="1" as="geometry">
            <mxPoint x="10" y="200" as="sourcePoint" />
            <mxPoint x="170" y="200" as="targetPoint" />
            <mxPoint as="offset" />
          </mxGeometry>
        </mxCell>
        <mxCell id="c4pE5uQ9nAKv7uVE72FW-9" value="1" style="endArrow=open;html=1;endSize=12;startArrow=diamondThin;startSize=14;startFill=1;edgeStyle=orthogonalEdgeStyle;align=left;verticalAlign=bottom;rounded=0;" edge="1" parent="1" source="78961159f06e98e8-17" target="8uhb50UtoSt3Oemtr91H-10">
          <mxGeometry x="-1" y="3" relative="1" as="geometry">
            <mxPoint x="450" y="210" as="sourcePoint" />
            <mxPoint x="610" y="210" as="targetPoint" />
          </mxGeometry>
        </mxCell>
      </root>
    </mxGraphModel>
  </diagram>
</mxfile>
